<svg xmlns="http://www.w3.org/2000/svg" viewBox="0 0 64 64" width="64" height="64" aria-hidden="true">
  <defs>
    <linearGradient id="g-comp" x1="0" x2="1">
      <stop offset="0" stop-color="#7b61ff"/>
      <stop offset="1" stop-color="#3ec6ff"/>
    </linearGradient>
  </defs>
  <rect width="64" height="64" rx="8" fill="transparent"/>
  <!-- Outer block (uncompressed) -->
  <rect x="6" y="6" width="52" height="52" rx="8" fill="url(#g-comp)" opacity="0.2"/>
  <!-- Inner compressed block -->
  <rect x="18" y="18" width="28" height="28" rx="6" fill="url(#g-comp)"/>
  <!-- White highlight lines on compressed block -->
  <line x1="24" y1="28" x2="40" y2="28" stroke="rgba(255,255,255,0.8)" stroke-width="2" stroke-linecap="round"/>
  <line x1="24" y1="33" x2="38" y2="33" stroke="rgba(255,255,255,0.5)" stroke-width="2" stroke-linecap="round"/>
  <line x1="24" y1="38" x2="34" y2="38" stroke="rgba(255,255,255,0.3)" stroke-width="2" stroke-linecap="round"/>
  <!-- Inward squeeze arrows -->
  <path d="M10 16l8 8" stroke="url(#g-comp)" stroke-width="2.5" stroke-linecap="round"/>
  <path d="M54 16l-8 8" stroke="url(#g-comp)" stroke-width="2.5" stroke-linecap="round"/>
  <path d="M10 48l8-8" stroke="url(#g-comp)" stroke-width="2.5" stroke-linecap="round"/>
  <path d="M54 48l-8-8" stroke="url(#g-comp)" stroke-width="2.5" stroke-linecap="round"/>
  <!-- Arrow tips -->
  <path d="M18 24l-2-6 6 2" fill="none" stroke="url(#g-comp)" stroke-width="2" stroke-linecap="round" stroke-linejoin="round"/>
  <path d="M46 24l2-6-6 2" fill="none" stroke="url(#g-comp)" stroke-width="2" stroke-linecap="round" stroke-linejoin="round"/>
  <path d="M18 40l-2 6 6-2" fill="none" stroke="url(#g-comp)" stroke-width="2" stroke-linecap="round" stroke-linejoin="round"/>
  <path d="M46 40l2 6-6-2" fill="none" stroke="url(#g-comp)" stroke-width="2" stroke-linecap="round" stroke-linejoin="round"/>
</svg>
