<svg xmlns="http://www.w3.org/2000/svg" viewBox="0 0 64 64" width="64" height="64" aria-hidden="true">
  <defs>
    <linearGradient id="g-rtr" x1="0" x2="1">
      <stop offset="0" stop-color="#7b61ff"/>
      <stop offset="1" stop-color="#3ec6ff"/>
    </linearGradient>
  </defs>
  <rect width="64" height="64" rx="8" fill="transparent"/>
  <!-- Central hub node -->
  <circle cx="32" cy="32" r="10" fill="url(#g-rtr)"/>
  <circle cx="32" cy="32" r="4" fill="rgba(255,255,255,0.85)"/>
  <!-- Branch: top-left -->
  <line x1="24" y1="24" x2="14" y2="14" stroke="url(#g-rtr)" stroke-width="2.5" stroke-linecap="round"/>
  <rect x="6" y="6" width="14" height="12" rx="3.5" fill="url(#g-rtr)" opacity="0.7"/>
  <line x1="10" y1="11" x2="16" y2="11" stroke="rgba(255,255,255,0.7)" stroke-width="1.5" stroke-linecap="round"/>
  <line x1="10" y1="14" x2="14" y2="14" stroke="rgba(255,255,255,0.4)" stroke-width="1.5" stroke-linecap="round"/>
  <!-- Branch: top-right -->
  <line x1="40" y1="24" x2="50" y2="14" stroke="url(#g-rtr)" stroke-width="2.5" stroke-linecap="round"/>
  <rect x="44" y="6" width="14" height="12" rx="3.5" fill="url(#g-rtr)" opacity="0.7"/>
  <line x1="48" y1="11" x2="54" y2="11" stroke="rgba(255,255,255,0.7)" stroke-width="1.5" stroke-linecap="round"/>
  <line x1="48" y1="14" x2="52" y2="14" stroke="rgba(255,255,255,0.4)" stroke-width="1.5" stroke-linecap="round"/>
  <!-- Branch: bottom-center -->
  <line x1="32" y1="42" x2="32" y2="50" stroke="url(#g-rtr)" stroke-width="2.5" stroke-linecap="round"/>
  <rect x="22" y="50" width="20" height="10" rx="3.5" fill="url(#g-rtr)" opacity="0.7"/>
  <line x1="26" y1="55" x2="38" y2="55" stroke="rgba(255,255,255,0.7)" stroke-width="1.5" stroke-linecap="round"/>
  <line x1="26" y1="58" x2="34" y2="58" stroke="rgba(255,255,255,0.4)" stroke-width="1.5" stroke-linecap="round"/>
  <!-- Sparkle -->
  <circle cx="56" cy="28" r="1.5" fill="rgba(255,255,255,0.5)"/>
</svg>
